<svg version="1.0" xmlns="http://www.w3.org/2000/svg" width="784px" height="1176px" viewBox="0 0 784 1176" preserveAspectRatio="xMidYMid meet">
 <g fill="#fefefe">
  
  <path d="M199.1 486.7 c0.4 -3.5 1.5 -8.2 2.5 -10.5 2.4 -4.8 8.2 -10.3 13.6 -12.7 3.8 -1.7 9.6 -1.8 176.8 -1.8 l172.9 0 4.7 2.3 c9.4 4.5 15.5 13.7 15.5 23.6 l0 5.5 -5.4 -0.8 c-7.6 -1 -366.7 -1 -374.8 0 l-6.5 0.8 0.6 -6.4z" data-index="1" style="opacity: 1;"></path>
  <path d="M199 439.4 c1 -10.6 5.7 -18.1 14.4 -22.7 l4.7 -2.5 173.9 0 173.9 0 3.8 2.1 c8.9 4.7 14.5 13.9 14.6 23.2 0 5.1 -0.1 5.4 -2.4 5.4 -1.2 0 -4.7 -0.7 -7.7 -1.4 -4.7 -1.2 -27.8 -1.4 -179.8 -1.4 -111.2 0 -176.6 0.4 -180.5 0.9 -3.4 0.6 -8.2 1.2 -10.7 1.6 l-4.6 0.6 0.5 -5.7z" data-index="2" style="opacity: 1;"></path>
 </g>
 <g fill="#534dd2">
  <path d="M178.1 670.6 l0 -161.3 2 -3.8 c1.1 -2.1 3.1 -5 4.3 -6.6 3.4 -4.1 10.8 -9.9 12.8 -9.9 0.8 0 1.6 -0.4 1.6 -0.8 0 -0.5 0.8 -1 1.8 -1.3 1.3 -0.3 1.6 0 1.2 1.4 -0.4 1.7 -0.1 1.8 3.2 1 4.9 -1 371.4 -0.9 374.8 0.1 2.1 0.7 2.5 0.5 2.5 -0.8 0 -5.6 17 7.2 21.6 16.2 1.9 3.7 2 5.3 2 28.6 0 26.2 -1.2 41.7 -4.7 57.5 -8 37 -29.8 74.2 -57.6 98.5 -24.6 21.6 -55.5 37.4 -86.1 44.1 -4.1 0.8 -8.4 2 -9.4 2.4 -5.2 2.1 -31.9 2.8 -97.7 2.8 -61.8 0 -70.5 0.2 -70.5 1.4 0 1.2 -5.5 1.4 -41.7 1.6 l-41.7 0.3 18.8 7.4 c10.4 4.1 22.9 9.1 27.8 11.2 9.6 4.1 22.5 9 31.4 12.2 l5.4 1.9 0 28.6 0 28.6 -50.9 0 -50.9 0 0 -161.4z" data-index="3" style="opacity: 1;"></path>
  <path d="M178.1 421.9 c0 -54.7 0 -54.2 6 -63.4 4 -5.8 10.1 -10.6 17 -13.2 4.5 -1.7 8.2 -1.8 67.9 -1.8 l63.1 0 5.7 2.7 c8.7 4.3 13.6 10 18.5 21.5 4.6 11 9.4 16.7 17.3 20.5 l4.7 2.4 100.4 0.5 100.4 0.5 5.3 2.5 c10 4.7 17.4 13.5 20.2 23.9 1 4.2 1.4 10.7 1.4 27.5 l0 22 -2.3 0 c-1.8 0 -2.7 -1 -4.7 -5.1 -2.9 -5.8 -10 -12.8 -16 -15.8 -2.9 -1.4 -4.3 -2.6 -4.3 -3.9 0 -1.2 0.5 -1.6 1.4 -1.2 2.1 0.8 1.8 -3.7 -0.6 -8.9 -2.4 -5.2 -7.5 -10.7 -12.6 -13.5 l-3.8 -2.1 -171 0 -171 0 -4.7 2.5 c-7.6 4.1 -12.3 10.3 -14.1 19.3 -0.6 2.6 -0.4 2.9 1.3 2.5 3.4 -0.8 1.1 3.4 -2.8 5.5 -7.6 3.9 -14 11.3 -17.3 20 -1.1 3.1 -2.2 4.4 -3.4 4.4 -1.7 0 -1.8 -1.8 -1.8 -49.3z" data-index="4"></path>
 </g>
 <g fill="#4137b4">
  <path d="M278.5 778.4 c-0.6 -0.4 -3.5 -1.7 -6.6 -2.7 -6.6 -2.3 -20.8 -7.8 -43.3 -16.9 -8.8 -3.6 -22.9 -9.2 -31.3 -12.5 -8.5 -3.3 -15.4 -6.4 -15.4 -6.8 0 -0.4 22 -0.8 49 -0.9 l49 -0.3 0 20.5 c0 11.2 -0.1 20.4 -0.3 20.4 -0.2 0 -0.7 -0.4 -1.1 -0.8z" data-index="5"></path>
  <path d="M604.7 519.7 c-0.5 -2.5 -1.4 -6.5 -2.3 -8.8 -2.5 -7.1 -10.7 -16 -17.6 -19.1 -1.9 -0.8 -2.5 -1.9 -2.5 -4.1 0 -7.3 -7.7 -17.5 -16 -21.2 -4.2 -1.9 -5.4 -2 -174.3 -2 -164.4 0 -170.2 0.1 -173.9 1.8 -8.7 4 -14.6 11.9 -15.9 21.1 -0.5 3.2 -1.1 4.4 -2.3 4.4 -1.8 0 -9.4 5.9 -12.5 9.9 -4.1 5 -5.4 7.8 -7.3 14.3 l-1.9 6.4 0 -26.5 c-0.1 -25.2 0 -26.8 2 -31.6 5.8 -14.4 15.7 -22.3 30.3 -24.3 5 -0.8 62.7 -1 184.2 -1 190.9 0 181.7 -0.2 191.6 4.8 5.7 2.9 12.6 9.9 15.5 15.5 1.3 2.7 2.8 5.1 3.3 5.3 0.6 0.2 0.8 12.4 0.7 30 -0.2 19.2 -0.6 28 -1 25z" data-index="6"></path>
 </g>
</svg>